# xmcd
#
# Track frame offsets:
# 150
# 16170
# 31556
# 41979
# 67877
# 81550
# 110052
# 124372
# 176234
# 208059
#
# Disc length: 3017 seconds
#
# Revision: 0
# Processed by: cddbd v1.4PL0 Copyright (c) Steve Scherf et al.
# Submitted via: Audion 2.5.0 (http://www.panic.com/audion/)
#
DISCID=8d0bc70a
DTITLE=Assorted - Julie's Jazz Mix
DYEAR=1900
DGENRE=
TTITLE0=Billie Holiday - I'll Be Seeing You
TTITLE1=BB King - Is You Is Or Is Ain't
TTITLE2=June Christy - A Lovely Way to Spend an Evening
TTITLE3=Ella Fitzgerald - The Nearness of You
TTITLE4=Nat King Cole - Route 66
TTITLE5=Diane Reeves You Taught My Heart to Sing
TTITLE6=Nat King Cole - On The Street Where You Live
TTITLE7=Monk - Straight, No Chaser
TTITLE8=Ella Fitzgerald - How High the Moon
TTITLE9=Real Group - Chili Con Carne
EXTD=
EXTT0=
EXTT1=
EXTT2=
EXTT3=
EXTT4=
EXTT5=
EXTT6=
EXTT7=
EXTT8=
EXTT9=
PLAYORDER=
